<?xml version="1.0" standalone="no"?>
<!DOCTYPE svg PUBLIC "-//W3C//DTD SVG 20010904//EN"
 "http://www.w3.org/TR/2001/REC-SVG-20010904/DTD/svg10.dtd">
<svg version="1.0" xmlns="http://www.w3.org/2000/svg"
 width="800.000000pt" height="445.000000pt" viewBox="0 0 800.000000 445.000000"
 preserveAspectRatio="xMidYMid meet">

<g transform="translate(0.000000,445.000000) scale(0.100000,-0.100000)"
fill="#000000" stroke="none">
<path d="M5052 3448 c-24 -30 -72 -140 -66 -150 4 -7 3 -8 -4 -4 -10 6 -22
-13 -52 -89 -4 -11 -7 -24 -6 -28 0 -5 -7 -13 -16 -18 -10 -6 -18 -15 -18 -20
0 -34 -257 -442 -273 -432 -6 4 -7 1 -3 -6 5 -7 1 -20 -7 -29 -8 -9 -25 -47
-37 -84 -12 -37 -26 -65 -30 -63 -5 3 -6 -4 -3 -14 4 -16 1 -19 -17 -14 -16 4
-18 8 -8 14 10 7 9 9 -4 9 -9 0 -19 -3 -21 -7 -5 -9 25 -40 33 -35 2 2 6 -2 9
-9 2 -7 -1 -9 -8 -4 -8 4 -11 2 -10 -6 6 -26 -11 -68 -24 -63 -9 3 -17 -8 -24
-31 -6 -19 -7 -33 -2 -29 5 3 9 11 9 19 0 8 5 17 11 20 5 4 3 -10 -6 -32 -9
-21 -19 -44 -22 -50 -3 -7 -9 -13 -13 -13 -5 0 -11 -8 -15 -19 -6 -19 -35 -23
-47 -7 -4 6 -2 18 3 28 8 14 6 18 -10 18 -16 0 -25 19 -52 104 l-33 104 -28
-10 c-16 -6 -37 -8 -48 -5 -32 8 -30 -27 7 -135 23 -64 25 -79 14 -92 -7 -9
-17 -13 -22 -10 -5 3 -9 0 -9 -6 0 -6 -5 -8 -10 -5 -6 4 -8 10 -5 15 3 4 -1
10 -9 13 -19 8 -78 116 -70 129 4 6 3 8 -3 5 -6 -4 -16 6 -22 23 -5 17 -7 30
-3 30 4 0 2 4 -4 8 -13 8 -46 99 -149 412 -71 213 -105 297 -150 371 -27 43
-27 44 -2 19 13 -14 22 -28 20 -32 -2 -5 3 -8 13 -8 15 0 15 2 0 25 -14 21
-14 24 -1 19 8 -4 15 -10 15 -15 0 -5 9 -9 21 -9 13 0 18 4 13 12 -5 7 -2 9 7
6 8 -3 23 -9 34 -13 16 -6 17 -5 5 4 -8 6 -11 11 -6 11 5 0 3 7 -4 15 -7 8
-17 12 -23 8 -6 -4 -7 -1 -2 6 9 15 -46 75 -90 99 -74 38 -178 43 -278 12 -58
-18 -209 -99 -221 -119 -3 -4 2 -30 11 -56 l16 -48 23 26 23 27 16 -30 c16
-32 30 -38 38 -17 3 6 9 -3 13 -22 7 -32 8 -33 16 -12 4 12 13 19 18 16 8 -5
8 -11 1 -19 -11 -14 -5 -26 13 -26 6 0 4 5 -4 10 -10 6 -11 10 -3 10 19 0 69
-114 227 -523 89 -229 191 -398 276 -455 19 -13 36 -27 38 -31 1 -4 -17 -12
-40 -18 -31 -7 53 -9 297 -9 l340 2 55 25 c30 15 78 45 107 69 58 47 159 167
149 177 -3 4 -6 2 -6 -4 0 -6 -9 -9 -20 -6 -13 3 -20 0 -20 -9 0 -14 -105
-106 -184 -162 l-41 -29 34 36 c19 20 39 35 45 34 6 -1 10 4 9 11 -2 6 4 12
12 12 8 0 15 5 15 11 0 5 -6 7 -12 3 -10 -6 -9 -3 0 8 8 9 19 15 27 12 7 -3
16 -1 20 5 3 7 0 8 -9 5 -23 -9 -20 -2 30 77 26 39 94 169 151 288 145 298
291 590 347 690 25 46 46 85 46 87 0 2 -65 4 -144 4 -103 0 -146 -4 -154 -12z
m-1407 -48 c3 -6 -1 -7 -9 -4 -18 7 -21 14 -7 14 6 0 13 -4 16 -10z m99 -87
c9 -20 3 -16 -39 29 l-40 42 37 -30 c20 -16 39 -35 42 -41z m-339 -43 c-3 -6
4 -24 15 -41 12 -16 20 -33 17 -36 -3 -2 -13 9 -22 26 -8 17 -20 31 -26 31 -8
0 -7 5 1 15 14 17 24 20 15 5z"/>
<path d="M2998 3417 c-174 -65 -284 -213 -556 -747 -105 -207 -144 -294 -157
-350 -9 -41 -19 -82 -22 -90 -3 -8 -6 -33 -8 -55 -2 -22 -6 -52 -10 -67 l-7
-28 103 0 c57 0 122 5 144 12 22 6 44 11 48 10 5 -2 6 2 2 8 -3 5 -2 10 4 10
6 0 26 13 44 30 19 16 37 27 41 25 3 -3 4 -2 1 2 -3 3 3 18 12 32 16 24 49 83
143 252 37 66 56 109 45 97 -4 -3 -15 2 -26 13 -20 20 -59 26 -59 9 0 -5 -4
-10 -9 -10 -5 0 -7 10 -4 23 4 17 2 19 -6 7 -5 -8 -12 -12 -16 -9 -3 3 4 17
15 32 11 14 20 28 20 31 0 25 224 337 307 427 32 35 73 81 90 101 17 20 35 34
39 30 4 -4 4 1 1 11 -4 11 -3 16 3 12 6 -3 33 13 60 36 l50 42 -27 29 c-15 15
-32 28 -37 28 -6 0 -4 -6 4 -13 8 -7 16 -17 17 -22 1 -6 5 -19 8 -30 4 -11 -8
5 -26 35 -19 31 -47 61 -64 69 -42 20 -123 24 -167 8z"/>
<path d="M4976 3405 c-61 -31 -77 -45 -69 -58 3 -6 1 -7 -5 -3 -6 4 -19 -5
-28 -19 -9 -14 -23 -25 -32 -25 -8 0 -13 -3 -10 -6 3 -3 -5 -16 -17 -28 -13
-13 -22 -32 -21 -42 2 -10 -6 -25 -16 -34 -11 -9 -20 -33 -23 -60 -3 -25 -2
-39 1 -32 10 22 44 14 45 -10 0 -13 3 -17 6 -10 7 17 23 15 23 -2 0 -8 -10
-22 -22 -30 -12 -9 -18 -16 -12 -16 16 0 45 24 47 40 2 8 5 20 9 25 3 6 16 28
28 50 12 22 31 55 42 73 11 17 17 32 13 32 -3 0 6 17 19 37 19 28 22 39 13 45
-8 5 -7 8 5 8 15 0 35 34 30 53 -1 4 2 7 7 7 5 0 11 7 15 15 7 19 10 19 -48
-10z m-182 -230 c-4 -8 -8 -15 -10 -15 -2 0 -4 7 -4 15 0 8 4 15 10 15 5 0 7
-7 4 -15z"/>
<path d="M3815 3200 c3 -5 8 -10 11 -10 2 0 4 5 4 10 0 6 -5 10 -11 10 -5 0
-7 -4 -4 -10z"/>
<path d="M2855 2630 c-3 -6 1 -7 9 -4 18 7 21 14 7 14 -6 0 -13 -4 -16 -10z"/>
<path d="M4549 2597 c-8 -12 -13 -31 -11 -41 3 -15 8 -10 18 19 16 46 14 50
-7 22z"/>
<path d="M4517 2553 c-4 -3 -7 -11 -7 -17 0 -6 5 -5 12 2 6 6 9 14 7 17 -3 3
-9 2 -12 -2z"/>
<path d="M4455 2471 c-7 -12 31 -34 48 -28 7 3 0 8 -15 12 -16 4 -25 11 -22
16 3 5 3 9 0 9 -3 0 -7 -4 -11 -9z"/>
<path d="M4415 2429 c-4 -6 -5 -12 -2 -15 2 -3 7 2 10 11 7 17 1 20 -8 4z"/>
<path d="M4380 2395 c-7 -9 -10 -18 -6 -22 3 -3 6 0 6 8 0 12 2 11 10 -1 7
-12 9 -10 7 8 -2 26 -1 26 -17 7z"/>
<path d="M4345 2361 c-3 -5 -2 -12 3 -15 5 -3 9 1 9 9 0 17 -3 19 -12 6z"/>
<path d="M3609 2254 c15 -31 95 -101 137 -119 20 -8 64 -15 97 -15 l60 0 -44
24 c-24 13 -64 42 -88 64 -25 22 -48 39 -51 37 -4 -3 -21 -1 -37 4 -17 5 -36
5 -44 1 -8 -5 -18 -2 -26 8 -13 15 -13 15 -4 -4z"/>
<path d="M4932 2213 c13 -3 18 -18 21 -56 l3 -52 2 52 c2 40 6 53 20 56 9 3
-1 5 -23 5 -22 0 -32 -2 -23 -5z"/>
<path d="M5012 2163 l1 -58 6 45 6 45 18 -45 19 -45 23 45 23 45 4 -45 c4 -42
5 -42 6 13 1 31 -2 57 -6 57 -4 0 -18 -19 -29 -42 l-21 -43 -18 43 c-9 23 -21
42 -26 42 -4 0 -7 -26 -6 -57z"/>
<path d="M3014 1796 c-57 -27 -92 -69 -101 -120 -15 -95 31 -160 152 -217 44
-20 88 -46 98 -57 25 -28 19 -73 -13 -90 -40 -21 -140 -10 -195 22 l-45 27 0
-70 0 -69 38 -14 c57 -20 217 -17 275 5 81 32 120 109 103 201 -10 53 -50 93
-140 138 -95 47 -126 73 -126 105 0 61 113 75 223 28 15 -6 17 0 17 54 0 57
-2 62 -26 71 -14 6 -67 10 -117 10 -76 0 -101 -4 -143 -24z"/>
<path d="M2475 1798 c-3 -7 -52 -143 -110 -303 -58 -159 -105 -291 -105 -292
0 -2 34 -3 75 -3 l74 0 21 70 21 70 109 0 109 0 22 -70 23 -70 73 0 c40 0 73
3 73 6 0 3 -48 140 -106 305 l-107 299 -84 0 c-58 0 -85 -4 -88 -12z m126
-236 l36 -117 -39 -3 c-21 -2 -56 -2 -77 0 l-39 3 37 117 c20 65 38 118 41
118 3 0 21 -53 41 -118z"/>
<path d="M3430 1505 l0 -305 70 0 70 0 0 105 0 105 53 0 c111 0 204 48 238
124 33 73 21 172 -28 219 -52 48 -89 57 -253 57 l-150 0 0 -305z m254 191 c37
-15 50 -41 48 -96 -2 -53 -39 -80 -108 -80 l-54 0 0 95 0 95 40 0 c22 0 56 -6
74 -14z"/>
<path d="M4170 1505 l0 -305 35 0 35 0 1 263 c0 206 3 258 12 244 7 -11 82
-128 167 -260 l156 -242 47 -3 47 -3 0 305 0 306 -41 0 -41 0 4 -255 c2 -140
1 -251 -3 -247 -3 4 -77 118 -163 255 l-158 247 -49 0 -49 0 0 -305z"/>
<path d="M4830 1505 l0 -305 161 0 160 0 -3 31 -3 31 -120 1 -120 2 -3 108 -3
107 111 0 110 0 0 30 0 30 -82 2 c-46 1 -94 2 -108 3 -25 1 -25 2 -28 103 l-3
102 121 0 120 0 0 30 0 30 -155 0 -155 0 0 -305z"/>
<path d="M5210 1780 l0 -30 90 0 90 0 0 -275 0 -275 35 0 35 0 0 275 0 275 85
0 85 0 0 30 0 30 -210 0 -210 0 0 -30z"/>
<path d="M3970 1272 c-18 -14 -21 -25 -16 -45 7 -31 48 -46 71 -27 22 18 19
67 -4 80 -25 13 -25 13 -51 -8z"/>
</g>
</svg>
