<?xml version="1.0" standalone="no"?>
<!DOCTYPE svg PUBLIC "-//W3C//DTD SVG 20010904//EN"
 "http://www.w3.org/TR/2001/REC-SVG-20010904/DTD/svg10.dtd">
<svg version="1.0" xmlns="http://www.w3.org/2000/svg"
 width="500.000000pt" height="500.000000pt" viewBox="0 0 500.000000 500.000000"
 preserveAspectRatio="xMidYMid meet">

<g transform="translate(0.000000,500.000000) scale(0.100000,-0.100000)"
fill="#000000" stroke="none">
<path d="M3180 4667 c-25 -14 -44 -30 -42 -37 1 -6 -6 -26 -17 -43 -40 -67
-113 -221 -219 -467 -126 -291 -174 -401 -259 -585 -75 -162 -232 -475 -238
-475 -6 0 3 23 43 104 141 290 356 799 454 1075 16 47 47 123 69 170 51 113
24 77 -108 -144 -164 -273 -374 -558 -498 -674 -134 -125 -236 -187 -380 -231
-71 -22 -168 -74 -197 -107 -16 -17 -14 -18 23 -20 22 -2 49 -8 60 -14 20 -10
20 -11 3 -30 -39 -44 -256 -131 -239 -96 12 23 -96 -98 -158 -177 -34 -44 -72
-90 -85 -102 l-23 -22 83 -68 c46 -37 90 -74 98 -82 13 -13 12 -13 -7 -3 -25
13 -31 6 -25 -29 2 -14 4 -44 5 -67 1 -24 5 -43 9 -43 4 0 7 -42 7 -92 0 -51
2 -102 4 -113 3 -11 -1 -26 -7 -34 -8 -11 -8 -13 2 -7 9 5 12 -3 12 -28 0 -21
-5 -36 -12 -36 -9 0 -9 -3 0 -12 8 -8 8 -19 -3 -45 -8 -19 -10 -31 -5 -28 15
10 19 -11 7 -36 -7 -13 -12 -31 -12 -39 0 -8 -4 -18 -10 -22 -6 -5 -6 -8 3 -8
16 0 16 -35 -1 -52 -6 -7 -13 -20 -15 -27 -3 -12 0 -12 13 -1 14 12 14 10 5
-16 -6 -16 -11 -30 -11 -31 5 -18 -1 -33 -11 -27 -9 5 -9 2 1 -9 12 -16 8 -22
-12 -18 -5 1 -6 -2 -3 -7 3 -5 -9 -22 -27 -39 -44 -41 -202 -160 -238 -179
-16 -8 -29 -16 -29 -17 0 -8 126 19 135 28 11 12 72 57 95 70 18 10 -27 -43
-52 -63 -26 -19 -23 -25 30 -49 66 -31 159 -117 223 -210 30 -43 90 -149 134
-235 68 -133 82 -155 92 -140 6 10 30 24 54 32 24 7 49 17 54 21 14 10 198 63
326 93 58 14 126 33 150 42 24 9 49 17 54 19 69 19 241 108 238 123 -2 7 0 11
5 11 18 -3 35 2 29 8 -4 3 3 11 16 18 12 6 21 17 20 23 -2 7 0 11 5 9 4 -1 9
3 12 8 2 6 15 20 27 31 13 12 23 26 23 33 0 6 5 11 10 11 6 0 10 7 10 15 0 8
4 15 10 15 5 0 16 17 25 37 9 21 32 68 51 106 19 37 36 80 37 95 2 15 6 33 10
39 7 10 24 87 31 138 2 11 8 38 14 60 6 22 14 74 17 116 4 41 8 84 10 95 20
114 37 402 50 864 19 667 56 1106 111 1326 37 145 87 149 153 12 22 -46 54
-133 70 -194 33 -118 114 -491 131 -596 5 -34 20 -128 34 -208 13 -80 27 -163
30 -185 4 -22 13 -83 22 -135 9 -52 17 -110 19 -128 2 -18 6 -45 9 -60 3 -15
8 -43 12 -62 3 -19 12 -71 20 -115 8 -44 19 -105 24 -135 18 -114 106 -507
135 -605 12 -44 36 -179 38 -226 1 -12 17 -20 53 -28 63 -15 175 -67 251 -119
32 -22 145 -118 251 -213 229 -206 311 -277 334 -290 13 -7 8 11 -19 68 -152
331 -543 1378 -803 2148 -180 532 -254 724 -365 948 -141 280 -264 425 -380
442 -31 5 -50 1 -85 -18z m-1580 -2760 c0 -2 -19 -21 -42 -42 l-43 -40 40 43
c36 39 45 47 45 39z"/>
</g>
</svg>
